<svg xmlns="http://www.w3.org/2000/svg" width="596.94299" height="441.11401" viewBox="0 0 157.94116 116.71142"><path d="M30.57 73.912c4.404 8.535 20.888 3.553 26.34-2.865-.103 1.093 1.013 6.9 7.742 7.42 6.89.538 12.031-1.887 15.839-5.466 7.236 10.722 27.686 5.051 39.19-8.901 7.43-9.03 11.457-20.224 6.601-28.942l17.957 2.819c.827.069.977-.483.576-.933l-8.938-12.457 7.614-4.268c.334-.194.207-.46-.058-.483l-8.914-.597 7.04-12.343c.288-.62-.07-.977-.737-.7l-13.837 4.162-1.449-7.257c-.012-.185-.265-.219-.392-.047l-3.784 6.684-9.226-9.503c-.402-.424-.92-.252-.977.335l-2.737 16.265-69.707 29.768 1.748-4.279c.288-.713.035-1.207-.735-.978l-7.891 2.727c-2.185 4.279-11.319 10.686-16.012 12.32l-1.978 4.289c-.184.471-.092 1.07.702.931l2.345-.481-3.347 8.131c-1.494 3.75-.449 9.216 6.524 9.216 5.359-.013 9.534-2.716 11.524-5.327" style="fill:#31327f;fill-opacity:1;fill-rule:nonzero;stroke:none;stroke-width:.352778"/><path d="M102.219 7.713 52.725 37.148l-.232 1.403 49.726-23.373Z" style="fill:#31327f;fill-opacity:1;fill-rule:nonzero;stroke:none;stroke-width:.352778"/><path d="M108.788 51.791c-2.578 6.337-6.43 11.18-11.445 11.48-5.693.331-4.442-5.993-2.324-11.066 2.093-4.981 6.119-10.846 11.285-10.846 4.956-.173 4.589 5.258 2.484 10.432M82.169 45.51l5.615-1.229 2.117-4.488-5.649 1.276 4.808-10.478-4.888 2.13c-3.968 6.119-9.478 10.283-18.485 14.113l-1.345 3.036L70.3 48.5l-5.108 11.068c-1.195 2.587-2.427 5.657-2.875 7.245-1.496 5.28 1.622 7.915 8.03 6.557 1.459-.3 6.98-2.416 12.077-7.89a23.418 23.418 0 0 0 1.933-2.416l-.45-1.254c-.424.62-1.656 1.932-1.656 1.932-3.727 3.727-6.119 4.049-7.086 4.049-2.254 0-1.655-2.53-.965-4.245l7.97-18.036m.542 20.958c1.254 4.957 6.027 6.984 13.341 5.763 10.41-1.75 20.591-9.88 24.985-21.855 3.336-9.11 1.323-17.495-10.295-16.7-10.767.735-21.544 8.912-26.305 20.886-1.485 3.257-1.887 5.877-2.037 8.076 0 0-.174 2.071.311 3.83M53.161 58.177c-2.256 4.679-5.36 8.143-9.076 8.167-4.22.01-3.013-4.672-1.184-8.4 1.794-3.68 5.095-7.983 8.972-7.786 3.715.058 3.15 4.187 1.288 8.019m-19.004 7.636-.102-1c-.31.54-.978 1.276-.978 1.276-3.29 3.772-5.578 4.613-6.43 4.646-1.622.057-1.46-1.61-.966-2.84.161-.415 4.21-9.718 5.05-11.274l4.026-.874 1.575-3.402-4.048.92 3.359-7.041-2.957 1.07c-2.99 3.566-7.867 7.74-13.906 10.49l-.783 1.794 4.267-.977-3.047 6.441c-.863 1.852-1.737 4.048-2.06 5.198-1.07 3.786 1.163 5.674 5.763 4.706 1.174-.255 6.132-2.266 10.1-7.407.53-.726 1.137-1.726 1.137-1.726m-1.137 1.84c.16 4.946 3.853 7.063 10.018 6.028 7.695-1.3 15.345-7.397 18.784-16.449 2.657-6.97 1.254-13.424-7.545-12.745-8.109.631-16.196 6.947-19.738 16.024-.806 2.034-1.279 3.851-1.45 5.44 0 0-.126.677-.069 1.702" style="fill:#fff200;fill-opacity:1;fill-rule:nonzero;stroke:none;stroke-width:.352778"/><path d="m114.033 7.218-1.69 12.263-15.196 7.199 13.124 2.232-4.003 17.358 15.426-15.76 16.357 3.405-9.95-11.502 6.085-10.364-12.389 3.946z" style="fill:#ed1c24;fill-opacity:1;fill-rule:nonzero;stroke:none;stroke-width:.352778"/><path d="m125.569 94.68.897-4.059H99.26l-.196.784s2.484.02 1.753 3.355l-1.743 7.884c-.93 4.21 1.47 5.481 4.861 5.481h2.685l-.997 4.513H95.328l-.9 4.073h28.425l.9-4.073h-10.727l.996-4.513h8.576l.898-4.064H106.09l.584-2.645h17.405l.902-4.083h-17.404l.586-2.653zM130.541 91.405s2.484.02 1.753 3.356l-1.743 7.883c-.929 4.21 1.47 5.481 4.86 5.481h2.686l-.997 4.513h-10.296l-.901 4.073h28.425l.9-4.073h-10.727l.997-4.513h8.575l.898-4.064h-17.404l.584-2.645h17.404l.903-4.083h-17.405l.587-2.653h17.405l.896-4.059h-27.204zM51.485 104.068H44.46l2.046-9.255h7.023zm11.274-9.255.896-4.057h-25.55l-.898 4.057h2.73l-2.045 9.255h-2.769l-.896 4.057h9.93l-.998 4.513H32.377l-.901 4.073H59.9l.9-4.073H49.588l.996-4.513h9.194l.896-4.057h-2.581l2.045-9.255zM85.603 92.302l.709-3.18h-7.485l-.144.578s1.833.016 1.294 2.478l-.03.124h-9.704l-.896 4.057h7.175l-10.384 11.767h7.283l7.949-9.005 3.903 9.005h6.837l-5.101-11.767h7.11l.895-4.057zM62.952 116.711h28.425l.9-4.075H63.854ZM21.566 90.778h-8.871l-.163.648s2.936.523 1.122 2.75l-.02.126L2.7 108.126h7.283l8.485-10.993 4.341 10.993h6.836l-6.988-17.348ZM0 116.711h28.426l.9-4.075H.9Z" style="fill:#31327f;fill-opacity:1;fill-rule:nonzero;stroke:none;stroke-width:.352778"/></svg>